<mxfile host="app.diagrams.net" modified="2024-10-25T10:00:57.516Z" agent="Mozilla/5.0 (Windows NT 10.0; Win64; x64) AppleWebKit/537.36 (KHTML, like Gecko) Chrome/129.0.0.0 Safari/537.36" version="24.4.0" etag="0FUYWxIMxrBL2y-vsPdH" type="github">
  <diagram name="Page-1" id="YhCTkq7ExOAG9MypZDT2">
    <mxGraphModel>
      <root>
        <mxCell id="0" />
        <mxCell id="1" parent="0" />
      </root>
    </mxGraphModel>
  </diagram>
</mxfile>
